<svg xmlns="http://www.w3.org/2000/svg" width="64" height="64" viewBox="0 0 384 384">
  <defs>
    <linearGradient id="tile" x1="0" y1="0" x2="0" y2="1">
      <stop offset="0" stop-color="#8bb9c4"/>
      <stop offset=".5" stop-color="#dbd2cd"/>
      <stop offset="1" stop-color="#fed6ca"/>
    </linearGradient>
    <linearGradient id="orb" x1="0" y1="0" x2="0" y2="1">
      <stop offset="0" stop-color="#86bfcb"/>
      <stop offset=".48" stop-color="#fff0da"/>
      <stop offset="1" stop-color="#f69a92"/>
    </linearGradient>
    <radialGradient id="candy" cx=".4" cy=".35" r=".75">
      <stop offset="0" stop-color="#fb9fa0"/>
      <stop offset="1" stop-color="#dc6b79"/>
    </radialGradient>
  </defs>
  <path d="M384 192 L383.9 251 L383.6 269.8 L383.1 283.4 L382.3 294.4 L381.4 303.8 L380.2 312 L378.8 319.4 L377.2 326 L375.3 332 L373.3 337.5 L371 342.6 L368.4 347.2 L365.6 351.5 L362.5 355.5 L359.1 359.1 L355.5 362.5 L351.5 365.6 L347.2 368.4 L342.6 371 L337.5 373.3 L332 375.3 L326 377.2 L319.4 378.8 L312 380.2 L303.8 381.4 L294.4 382.3 L283.4 383.1 L269.8 383.6 L251 383.9 L192 384 L133 383.9 L114.2 383.6 L100.6 383.1 L89.6 382.3 L80.2 381.4 L72 380.2 L64.6 378.8 L58 377.2 L52 375.3 L46.5 373.3 L41.4 371 L36.8 368.4 L32.5 365.6 L28.5 362.5 L24.9 359.1 L21.5 355.5 L18.4 351.5 L15.6 347.2 L13 342.6 L10.7 337.5 L8.7 332 L6.8 326 L5.2 319.4 L3.8 312 L2.6 303.8 L1.7 294.4 L0.9 283.4 L0.4 269.8 L0.1 251 L0 192 L0.1 133 L0.4 114.2 L0.9 100.6 L1.7 89.6 L2.6 80.2 L3.8 72 L5.2 64.6 L6.8 58 L8.7 52 L10.7 46.5 L13 41.4 L15.6 36.8 L18.4 32.5 L21.5 28.5 L24.9 24.9 L28.5 21.5 L32.5 18.4 L36.8 15.6 L41.4 13 L46.5 10.7 L52 8.7 L58 6.8 L64.6 5.2 L72 3.8 L80.2 2.6 L89.6 1.7 L100.6 0.9 L114.2 0.4 L133 0.1 L192 0 L251 0.1 L269.8 0.4 L283.4 0.9 L294.4 1.7 L303.8 2.6 L312 3.8 L319.4 5.2 L326 6.8 L332 8.7 L337.5 10.7 L342.6 13 L347.2 15.6 L351.5 18.4 L355.5 21.5 L359.1 24.9 L362.5 28.5 L365.6 32.5 L368.4 36.8 L371 41.4 L373.3 46.5 L375.3 52 L377.2 58 L378.8 64.6 L380.2 72 L381.4 80.2 L382.3 89.6 L383.1 100.6 L383.6 114.2 L383.9 133Z" fill="url(#tile)"/>
  <circle cx="192" cy="192" r="136" fill="url(#orb)"/>
  <rect x="186" y="232" width="8" height="94" rx="4" fill="#f4f1f0"/>
  <circle cx="192" cy="170" r="82" fill="url(#candy)"/>
  <path d="M194.4 171.6 L194.5 172.1 L194.7 172.7 L194.7 173.3 L194.6 173.9 L194.4 174.5 L194.2 175.1 L193.8 175.7 L193.4 176.3 L192.8 176.9 L192.2 177.4 L191.5 177.8 L190.7 178.2 L189.8 178.4 L188.8 178.6 L187.8 178.7 L186.8 178.6 L185.8 178.5 L184.7 178.2 L183.6 177.8 L182.6 177.2 L181.5 176.5 L180.6 175.7 L179.7 174.8 L178.8 173.7 L178.1 172.5 L177.5 171.3 L177 169.9 L176.6 168.4 L176.4 166.9 L176.3 165.3 L176.4 163.7 L176.7 162 L177.1 160.3 L177.7 158.7 L178.5 157.1 L179.5 155.5 L180.7 154.1 L182 152.7 L183.5 151.4 L185.1 150.3 L186.9 149.3 L188.8 148.4 L190.9 147.8 L193 147.3 L195.2 147.1 L197.4 147 L199.7 147.2 L202 147.6 L204.3 148.3 L206.6 149.2 L208.8 150.3 L210.9 151.6 L212.9 153.2 L214.7 155 L216.4 157 L218 159.2 L219.3 161.6 L220.4 164.1 L221.3 166.7 L221.9 169.5 L222.3 172.4 L222.4 175.3 L222.2 178.3 L221.7 181.2 L220.9 184.2 L219.8 187.1 L218.4 189.9 L216.8 192.6 L214.8 195.2 L212.6 197.6 L210.2 199.8 L207.5 201.8 L204.6 203.5 L201.5 205 L198.2 206.2 L194.8 207 L191.3 207.6 L187.7 207.8 L184.1 207.7 L180.4 207.2 L176.8 206.3 L173.2 205.1 L169.7 203.6 L166.4 201.7 L163.2 199.5 L160.2 196.9 L157.4 194 L154.9 190.9 L152.7 187.5 L150.8 183.8 L149.3 180 L148.1 176 L147.2 171.8 L146.8 167.6 L146.8 163.3 L147.2 158.9 L148 154.6 L149.3 150.3 L150.9 146.2 L153 142.1 L155.4 138.3 L158.3 134.6 L161.5 131.3 L165 128.2 L168.9 125.4 L173 123 L177.4 121 L182 119.4 L186.8 118.2 L191.7 117.5 L196.7 117.3 L201.7 117.5 L206.7 118.2 L211.7 119.4 L216.6 121.1 L221.3 123.3 L225.9 125.9 L230.2 128.9 L234.2 132.4 L238 136.3 L241.3 140.6 L244.3 145.2 L246.8 150.1 L248.9 155.2 L250.5 160.6 L251.6 166.1 L252.1 171.7 L252.1 177.4 L251.6 183.2 L250.5 188.9 L248.9 194.5 L246.7 200 L244 205.2 L240.8 210.3 L237.1 215 L233 219.4 L228.4 223.4 L223.4 227 L218 230.2 L212.4 232.8" fill="none" stroke="#fbeee0" stroke-width="22" stroke-linecap="round" stroke-linejoin="round"/>
  <circle cx="192" cy="170" r="80" fill="none" stroke="#fff" stroke-opacity=".4" stroke-width="4"/>
</svg>
